<?xml version="1.0" standalone="no"?>
<!DOCTYPE svg PUBLIC "-//W3C//DTD SVG 20010904//EN"
 "http://www.w3.org/TR/2001/REC-SVG-20010904/DTD/svg10.dtd">
<svg version="1.0" xmlns="http://www.w3.org/2000/svg"
 width="261.000000pt" height="261.000000pt" viewBox="0 0 261.000000 261.000000"
 preserveAspectRatio="xMidYMid meet">
<metadata>
Created by potrace 1.14, written by Peter Selinger 2001-2017
</metadata>
<g transform="translate(0.000000,261.000000) scale(0.100000,-0.100000)"
fill="#000000" stroke="none">
<path d="M1245 1983 c-30 -63 -55 -117 -55 -118 0 -2 -16 -39 -36 -82 -20 -43
-50 -107 -66 -143 -156 -344 -202 -439 -207 -435 -4 2 -38 6 -76 10 -93 8
-253 30 -405 56 -69 11 -136 22 -150 24 -14 2 -69 13 -124 25 -131 27 -128 27
-124 -16 3 -33 7 -38 52 -56 92 -35 418 -108 621 -138 44 -7 91 -14 105 -16
14 -2 52 -6 85 -9 33 -3 69 -8 80 -10 133 -26 780 -27 855 -1 8 3 31 7 50 10
122 18 248 99 266 172 19 77 -27 196 -103 264 -24 21 -43 40 -43 43 0 14 95
41 188 52 40 5 255 17 351 19 75 1 85 4 92 22 16 45 5 47 -227 41 -121 -3
-235 -9 -254 -12 -69 -12 -137 -35 -162 -55 l-26 -20 -5 22 c-14 52 56 109
151 123 24 4 54 9 65 12 12 3 121 6 241 7 l219 1 1 49 c1 27 -4 55 -11 62 -7
6 -38 12 -70 13 -32 0 -67 3 -78 5 -40 8 -233 19 -330 19 -341 0 -517 -67
-470 -179 7 -18 41 -67 76 -110 63 -81 109 -163 109 -199 0 -16 -4 -14 -19 11
-10 17 -45 60 -78 95 -32 35 -69 77 -81 93 l-22 28 -10 -28 c-16 -42 1 -72 82
-145 112 -100 119 -108 106 -127 -12 -20 -99 -90 -117 -94 -7 -2 -30 41 -55
102 -23 58 -46 112 -49 120 -4 8 -62 147 -130 309 -89 213 -128 295 -140 297
-13 2 -31 -26 -72 -113z m85 -458 c45 -104 95 -219 111 -254 16 -35 27 -66 24
-70 -8 -7 -440 -12 -459 -5 -12 4 -11 12 5 42 15 30 128 266 216 450 9 18 17
31 18 30 2 -2 40 -88 85 -193z"/>
<path d="M2130 1224 c0 -28 -36 -84 -79 -122 -70 -63 -216 -119 -356 -136
-180 -23 -730 -23 -875 -1 -14 2 -63 7 -110 10 -47 3 -101 8 -120 10 -111 13
-148 17 -170 20 -14 2 -43 6 -65 10 -83 11 -310 53 -337 61 -15 4 -18 -1 -18
-29 0 -33 2 -35 63 -58 34 -13 67 -24 72 -25 6 -1 57 -11 115 -23 58 -11 150
-27 205 -35 96 -14 118 -17 231 -31 l52 -7 -32 -71 c-74 -167 -107 -208 -186
-228 -34 -9 -50 -18 -50 -29 0 -14 27 -16 240 -15 222 0 240 1 240 17 0 14 -8
18 -32 18 -48 0 -109 24 -131 51 -25 31 -19 90 19 183 l28 67 140 -7 c179 -9
302 -9 493 0 l151 7 15 -43 c43 -120 48 -161 26 -205 -13 -24 -75 -53 -114
-53 -26 0 -37 -11 -27 -26 5 -6 117 -10 310 -10 281 1 302 2 302 18 0 13 -8
18 -27 18 -42 1 -105 33 -136 70 -32 37 -56 82 -102 191 l-33 77 74 27 c157
57 251 166 238 275 -4 37 -14 54 -14 24z"/>
</g>
</svg>
